<svg xmlns="http://www.w3.org/2000/svg" viewBox="0 0 128 128"><ellipse cx="64" cy="30" rx="40" ry="16" fill="#0099cc"/><path fill="#0099cc" d="M24 30v34c0 8.8 17.9 16 40 16s40-7.2 40-16V30c0 8.8-17.9 16-40 16S24 38.8 24 30z"/><path fill="#0077aa" d="M24 64v34c0 8.8 17.9 16 40 16s40-7.2 40-16V64c0 8.8-17.9 16-40 16S24 72.8 24 64z"/><circle cx="86" cy="92" r="20" fill="#fff"/><circle cx="86" cy="92" r="13" fill="none" stroke="#0077aa" stroke-width="5"/><rect x="95" y="101" width="16" height="6" rx="3" transform="rotate(45 95 101)" fill="#0077aa"/></svg>
