<svg xmlns="http://www.w3.org/2000/svg" viewBox="0 0 128 128"><path fill="#000" d="M64 8c-9 0-16.5 6.6-18.9 15.4C40.6 21.2 35 20 29 20 16.3 20 6 30.3 6 43c0 5 1.6 9.6 4.3 13.4C6.4 61.2 4 67.4 4 74c0 9.7 5.1 18.2 12.7 23-1.1 3-1.7 6.2-1.7 9.5 0 2.5.3 5 1 7.4.5 1.9 2.4 3 4.3 2.5 1.9-.5 3-2.4 2.5-4.3-.5-1.8-.8-3.7-.8-5.6 0-3.2.7-6.2 2-8.9 2.6.7 5.4 1.1 8.2 1.1 1.6 1.7 3.5 3.2 5.6 4.4-1 1.9-1.6 4.1-1.6 6.4 0 1.5.2 3 .7 4.4.5 1.9 2.5 3 4.4 2.4 1.9-.5 3-2.5 2.4-4.4-.2-.8-.4-1.6-.4-2.4 0-1.6.6-3.1 1.5-4.3 2.3.4 4.7.6 7.1.6s4.8-.2 7.1-.6c.9 1.2 1.5 2.7 1.5 4.3 0 .8-.1 1.6-.4 2.4-.5 1.9.6 3.9 2.4 4.4 1.9.5 3.9-.6 4.4-2.4.4-1.4.7-2.9.7-4.4 0-2.3-.6-4.5-1.6-6.4 2.1-1.2 4-2.7 5.6-4.4 2.8 0 5.6-.4 8.2-1.1 1.3 2.7 2 5.7 2 8.9 0 1.9-.3 3.8-.8 5.6-.5 1.9.6 3.8 2.5 4.3 1.9.5 3.8-.6 4.3-2.5.7-2.4 1-4.9 1-7.4 0-3.3-.6-6.5-1.7-9.5C117.9 92.2 123 83.7 123 74c0-6.6-2.4-12.8-6.3-17.6 2.7-3.8 4.3-8.4 4.3-13.4 0-12.7-10.3-23-23-23-6 0-11.6 1.2-16.1 3.4C79.5 14.6 72 8 64 8z"/><ellipse fill="#fff" cx="46" cy="62" rx="8" ry="10"/><ellipse fill="#fff" cx="82" cy="62" rx="8" ry="10"/><ellipse fill="#000" cx="46" cy="63" rx="4" ry="5"/><ellipse fill="#000" cx="82" cy="63" rx="4" ry="5"/><path fill="#000" d="M64 74c-4 0-7 2-7 4.5s3 4.5 7 4.5 7-2 7-4.5S68 74 64 74z"/></svg>
