<svg xmlns="http://www.w3.org/2000/svg" viewBox="0 0 128 128"><path fill="#512BD4" d="M64 0C28.654 0 0 28.654 0 64s28.654 64 64 64 64-28.654 64-64S99.346 0 64 0z"/><path fill="#fff" d="M28.964 73.36a3.3 3.3 0 0 1-2.343-.95 3.13 3.13 0 0 1-.97-2.323c0-.913.323-1.69.97-2.332a3.32 3.32 0 0 1 2.343-.96c.92 0 1.706.32 2.36.96a3.13 3.13 0 0 1 .98 2.332 3.1 3.1 0 0 1-.98 2.323 3.27 3.27 0 0 1-2.36.95zM54.06 72.879h-4.218l-11.09-17.27a7.46 7.46 0 0 1-.696-1.367h-.107c.097.5.146 1.568.146 3.205v15.432h-3.732V48.32h4.49l10.703 16.872c.452.704.744 1.188.876 1.45h.07c-.12-.617-.18-1.665-.18-3.143V48.32h3.715v24.56zM72.81 72.879H59.474V48.32H72.28v3.39h-9.058v6.948h8.345v3.37h-8.345v7.476h9.587v3.375zM92.866 51.71h-7.05v21.169h-3.75V51.71h-7.03v-3.39h17.83v3.39z"/><path fill="#fff" d="M104.07 56.795v3.115h-2.95v3.07h-2.498v-3.07h-2.95v-3.115h2.95v-3.052h2.498v3.052h2.95z"/></svg>
