<svg xmlns="http://www.w3.org/2000/svg" viewBox="0 0 128 128"><path fill="#912626" d="M122.5 90.4c-6.7 3.5-41.4 17.8-48.8 21.6-7.4 3.9-11.5 3.8-17.3 1S12.2 95.5 5.6 92.3c-3.3-1.6-5-2.9-5-4.2v-12.8s48-10.5 55.8-13.2c7.8-2.8 10.4-2.9 17-.5s46.2 9.7 52.7 12.1v12.6c0 1.3-1.5 2.6-3.6 4.1z"/><path fill="#c6302b" d="M122.5 77.6c-6.7 3.5-41.4 17.8-48.8 21.7-7.4 3.8-11.5 3.8-17.3 1-5.8-2.8-42.7-17.7-49.3-20.9-6.6-3.2-6.7-5.4-.3-7.9 6.4-2.5 43.1-16.9 50.9-19.7 7.8-2.8 10.4-2.9 17-.5s41.1 16.1 47.6 18.5c6.6 2.4 6.9 4.4.2 7.7z"/><path fill="#912626" d="M122.5 69.5c-6.7 3.5-41.4 17.8-48.8 21.6-7.4 3.9-11.5 3.8-17.3 1C50.6 89.4 12.2 74.6 5.6 71.4c-3.3-1.6-5-2.9-5-4.2V54.4s48-10.5 55.8-13.2c7.8-2.8 10.4-2.9 17-.5s46.2 9.7 52.7 12.1v12.6c0 1.3-1.5 2.6-3.6 4.1z"/><path fill="#c6302b" d="M122.5 56.6c-6.7 3.5-41.4 17.8-48.8 21.7-7.4 3.8-11.5 3.8-17.3 1-5.8-2.8-42.7-17.7-49.3-20.9-6.6-3.2-6.7-5.4-.3-7.9C13.2 48 49.9 33.7 57.7 30.9c7.8-2.8 10.4-2.9 17-.5s41.1 16 47.6 18.5c6.6 2.4 6.9 4.4.2 7.7z"/><path fill="#912626" d="M122.5 47.7c-6.7 3.5-41.4 17.8-48.8 21.7-7.4 3.8-11.5 3.8-17.3 1C50.6 67.6 12.2 52.8 5.6 49.6c-3.3-1.6-5-2.9-5-4.2V32.6s48-10.5 55.8-13.2c7.8-2.8 10.4-2.9 17-.5s46.2 9.7 52.7 12.1v12.6c0 1.3-1.5 2.6-3.6 4.1z"/><path fill="#c6302b" d="M122.5 34.8C115.8 38.3 81.1 52.6 73.7 56.5c-7.4 3.8-11.5 3.8-17.3 1C50.6 54.6 13.7 39.8 7.1 36.6.5 33.4.4 31.2 6.8 28.7 13.2 26.2 49.9 11.8 57.7 9 65.5 6.2 68.1 6.1 74.7 8.5s41.1 16 47.6 18.5c6.6 2.4 6.9 4.4.2 7.8z"/><path fill="#fff" d="M79.8 25.9l-10.3 1.1-2.3 5.5-3.7-6.2-11.9-1.1 8.9-3.2-2.7-4.9 8.3 3.3 7.9-2.6-2.2 5.1zM65.3 49.1l-19.3-8 27.6-4.2z"/><path fill="#621e1e" d="M37.1 30.1c8.2-3.2 18.7-2.8 25 0l-25 0z"/></svg>
